<svg width="158.3180554304181" height="261.48828125" viewBox="0 0 100 165.16643066332122" class="looka-1j8o68f"><defs id="SvgjsDefs2343"><linearGradient id="SvgjsLinearGradient2346"><stop id="SvgjsStop2347" stop-color="#905726" offset="0"></stop><stop id="SvgjsStop2348" stop-color="#f5ec9b" offset="0.5"></stop><stop id="SvgjsStop2349" stop-color="#905e26" offset="1"></stop></linearGradient></defs><g id="SvgjsG2344" featurekey="tpnldm-0" transform="matrix(7.2358901742560375,0,0,7.2358901742560375,-4.341533414485361,20.448627178200468)" fill="url(#SvgjsLinearGradient2346)"><path d="M6.84 20 l0.1 -16.5 l-1.56 16.5 l-1.66 0 l-1.56 -16.5 l0.1 16.5 l-1.66 0 l0 -18.68 l3.12 0 l0.82 11.72 l0.84 -11.72 l3.12 0 l0 18.68 l-1.66 0 z M14.42 1.3200000000000003 l0 18.68 l-1.66 0 l0 -5.6 q0 -0.88 -0.25 -1.47 t-1.05 -1.69 t-1.16 -1.74 t-0.51 -1.32 t-0.15 -1.72 l0 -5.14 l1.66 0 l0 5.34 q0 0.96 0.24 1.57 t1.04 1.71 l0.18 0.26 l0 -8.88 l1.66 0 z"></path></g></svg>